<?xml version="1.0" encoding="UTF-8" standalone="no"?>
<!-- Created with Inkscape (http://www.inkscape.org/) -->

<svg
   width="512"
   height="512"
   viewBox="0 0 135.46666 135.46667"
   version="1.1"
   id="svg5"
   inkscape:version="1.2.2 (b0a8486541, 2022-12-01)"
   sodipodi:docname="wpi_new_logo_final.svg"
   xml:space="preserve"
   xmlns:inkscape="http://www.inkscape.org/namespaces/inkscape"
   xmlns:sodipodi="http://sodipodi.sourceforge.net/DTD/sodipodi-0.dtd"
   xmlns="http://www.w3.org/2000/svg"
   xmlns:svg="http://www.w3.org/2000/svg"><sodipodi:namedview
     id="namedview7"
     pagecolor="#505050"
     bordercolor="#ffffff"
     borderopacity="1"
     inkscape:showpageshadow="0"
     inkscape:pageopacity="0"
     inkscape:pagecheckerboard="1"
     inkscape:deskcolor="#505050"
     inkscape:document-units="px"
     showgrid="true"
     inkscape:zoom="1.6338382"
     inkscape:cx="190.34933"
     inkscape:cy="293.78675"
     inkscape:window-width="1890"
     inkscape:window-height="1000"
     inkscape:window-x="0"
     inkscape:window-y="0"
     inkscape:window-maximized="1"
     inkscape:current-layer="layer1"><inkscape:grid
       type="xygrid"
       id="grid9" /></sodipodi:namedview><defs
     id="defs2" /><g
     inkscape:label="Layer 1"
     inkscape:groupmode="layer"
     id="layer1"><path
       style="opacity:1;fill:#ab1a2d;fill-opacity:1;stroke-width:0.264583"
       d="m 60.854166,26.722916 v 7.9375 h -24.60625 l -25.664583,32.808333 25.4,33.337501 20.6375,-0.26458 6.35,-28.839588 h 7.672916 L 62.441666,108.74375 H 32.54375 L 0.52916666,67.733332 32.54375,26.722916 h 28.310416"
       id="path272"
       sodipodi:nodetypes="ccccccccccccc" /><path
       style="fill:#ab1a2d;fill-opacity:1;stroke-width:0.264583"
       d="m 49.477083,42.597916 h -9.525 L 20.372916,67.733332 39.952083,92.868749 h 9.525 L 30.1625,67.733332 Z"
       id="path1515"
       sodipodi:nodetypes="ccccccc" /><path
       style="fill:#ab1a2d;fill-opacity:1;stroke-width:0.264583"
       d="m 60.854166,26.722916 v 7.9375 h -24.60625 l -25.664583,32.808333 25.4,33.337501 20.6375,-0.26458 6.35,-28.839588 h 7.672916 L 62.441666,108.74375 H 32.54375 L 0.52916666,67.733332 32.54375,26.722916 h 28.310416"
       id="path1540"
       sodipodi:nodetypes="ccccccccccccc" /><path
       style="fill:#4d4e4e;fill-opacity:1;stroke-width:0.264583"
       d="m 86.518749,92.868754 h 9.525 L 115.62292,67.733338 96.043749,42.597921 h -9.525 l 19.314581,25.135417 z"
       id="path1552"
       sodipodi:nodetypes="ccccccc" /><path
       style="fill:#4d4e4e;fill-opacity:1;stroke-width:0.264583"
       d="m 75.141666,108.74375 v -7.9375 h 24.60625 L 125.4125,67.997921 100.0125,34.66042 79.374999,34.925 l -6.35,28.839588 H 65.352083 L 73.554166,26.72292 h 29.897914 l 32.01459,41.010418 -32.01459,41.010412 H 75.141666"
       id="path1554"
       sodipodi:nodetypes="ccccccccccccc" /></g></svg>
